<?xml version="1.0" encoding="UTF-8"?>
<svg id="Capa_1" data-name="Capa 1" xmlns="http://www.w3.org/2000/svg" version="1.1" viewBox="0 0 72 100">
  <defs>
    <style>
      .cls-1 {
        fill: #cedd82;
      }

      .cls-1, .cls-2 {
        stroke-width: 0px;
      }

      .cls-2 {
        fill: #00413b;
      }
    </style>
  </defs>
  <path class="cls-1" d="M36,87.6c-17.1-.2-27.8-16.4-20.9-32.1,1.8-4.1,1.5-7.5,0-11.4-4.2-10.2-1.4-21.3,6.9-27.2,8.8-6.3,20.8-6,28.7.7,8.3,7,11,18.9,5.8,28.4-2.1,3.8-.6,6.6.7,9.7,6.3,15.4-4.8,32.1-21.1,31.9ZM29.8,67.6c.7-4.9-2.3-8.9-7.8-11.5-4.9,7-3.5,15.7,3.4,21.8,6.2,5.5,16,5,22.2-1,6.5-6.3,7.2-15.7,1.6-22.6-2.8-3.5-5.8-6.9-9-10-1.8-1.7-4.4-2.7-6.6-4-.4.3-.7.6-1.1.9-.7-3.9-1.5-7.8-2.3-12.3,3.2.8,5.4,1,7.3,1.9,1.6.8,4,2.1,4.1,3.5.7,5.2,4.9,6.9,7.8,10.2,4.8-6.8,3.4-17-2.3-21.7-6.9-5.7-16.5-5.8-22.4-.3-6.8,6.3-7.6,15.9-1.8,23.4,2.4,3.1,5.2,6.1,8.1,8.8,2.2,2,4.9,3.5,7.4,5.2.3-.3.7-.6,1-.9.7,3.7,1.4,7.5,2.2,11.9-4.7-1.3-8.2-2.2-11.9-3.2Z"/>
  <path class="cls-2" d="M29.8,67.6c3.8,1,7.3,2,11.9,3.2-.8-4.4-1.5-8.2-2.2-11.9-.3.3-.7.6-1,.9-2.5-1.7-5.2-3.1-7.4-5.2-2.9-2.7-5.7-5.6-8.1-8.8-5.8-7.5-5-17.1,1.8-23.4,5.9-5.5,15.5-5.4,22.4.3,5.8,4.8,7.1,15,2.3,21.7-3-3.2-7.1-5-7.8-10.2-.2-1.3-2.5-2.7-4.1-3.5-1.9-.9-4.1-1.1-7.3-1.9.8,4.5,1.6,8.4,2.3,12.3.4-.3.7-.6,1.1-.9,2.2,1.3,4.8,2.3,6.6,4,3.3,3.1,6.2,6.5,9,10,5.6,6.9,4.8,16.3-1.6,22.6-6.2,6-16,6.4-22.2,1-6.9-6.1-8.3-14.7-3.4-21.8,5.5,2.5,8.5,6.6,7.8,11.5Z"/>
</svg>